<mxfile host="app.diagrams.net" modified="2022-06-12T14:06:39.636Z" agent="5.0 (X11; Linux x86_64) AppleWebKit/537.36 (KHTML, like Gecko) Chrome/102.0.5005.61 Safari/537.36" etag="ZS8vaaEda-Kropf03oWi" version="19.0.3" type="github">
  <diagram name="Page-1" id="c7558073-3199-34d8-9f00-42111426c3f3">
    <mxGraphModel dx="1350" dy="773" grid="1" gridSize="10" guides="1" tooltips="1" connect="1" arrows="1" fold="1" page="1" pageScale="1" pageWidth="826" pageHeight="1169" background="none" math="0" shadow="0">
      <root>
        <mxCell id="0" />
        <mxCell id="1" parent="0" />
        <mxCell id="uqQuY3vlvmqI8VBcCE-R-108" style="edgeStyle=orthogonalEdgeStyle;rounded=0;jumpSize=6;orthogonalLoop=1;jettySize=auto;html=1;exitX=0.5;exitY=1;exitDx=0;exitDy=0;entryX=0.5;entryY=0;entryDx=0;entryDy=0;strokeWidth=2.5;fillColor=#f8cecc;strokeColor=#b85450;" edge="1" parent="1" source="5" target="11">
          <mxGeometry relative="1" as="geometry" />
        </mxCell>
        <mxCell id="5" value="AWS Service Quotas with Default Value" style="shape=process;whiteSpace=wrap;align=center;verticalAlign=middle;size=0.0475;fontStyle=1;strokeWidth=3;fillColor=#FFCCCC" parent="1" vertex="1">
          <mxGeometry x="188.4999999999999" y="50" width="400" height="50" as="geometry" />
        </mxCell>
        <mxCell id="uqQuY3vlvmqI8VBcCE-R-103" style="edgeStyle=orthogonalEdgeStyle;rounded=0;orthogonalLoop=1;jettySize=auto;html=1;exitX=0.5;exitY=1;exitDx=0;exitDy=0;entryX=0.861;entryY=0.023;entryDx=0;entryDy=0;entryPerimeter=0;strokeWidth=2.5;fillColor=#f8cecc;strokeColor=#b85450;" edge="1" parent="1" source="9" target="uqQuY3vlvmqI8VBcCE-R-96">
          <mxGeometry relative="1" as="geometry" />
        </mxCell>
        <mxCell id="uqQuY3vlvmqI8VBcCE-R-109" style="edgeStyle=orthogonalEdgeStyle;rounded=0;jumpSize=6;orthogonalLoop=1;jettySize=auto;html=1;exitX=0.862;exitY=1;exitDx=0;exitDy=0;entryX=0.5;entryY=0;entryDx=0;entryDy=0;strokeWidth=2.5;exitPerimeter=0;fillColor=#f8cecc;strokeColor=#b85450;" edge="1" parent="1" source="5" target="9">
          <mxGeometry relative="1" as="geometry" />
        </mxCell>
        <mxCell id="9" value="&lt;p style=&quot;margin: 0px; margin-top: 4px; text-align: center; text-decoration: underline;&quot;&gt;&lt;strong&gt;Development&lt;/strong&gt;&lt;/p&gt;&lt;hr&gt;&lt;p style=&quot;margin: 0px; margin-left: 8px;&quot;&gt;Catch limit&amp;nbsp;&lt;/p&gt;&lt;p style=&quot;margin: 0px; margin-left: 8px;&quot;&gt;form&amp;nbsp;&lt;span style=&quot;background-color: initial;&quot;&gt;DEV and&amp;nbsp;&lt;/span&gt;&lt;/p&gt;&lt;p style=&quot;margin: 0px; margin-left: 8px;&quot;&gt;&lt;span style=&quot;background-color: initial;&quot;&gt;SandBox&lt;/span&gt;&lt;/p&gt;" style="verticalAlign=middle;align=center;overflow=fill;fontSize=12;fontFamily=Helvetica;html=1;rounded=1;fontStyle=1;strokeWidth=3;fillColor=#E6FFCC" parent="1" vertex="1">
          <mxGeometry x="478.5" y="290" width="110" height="90" as="geometry" />
        </mxCell>
        <mxCell id="uqQuY3vlvmqI8VBcCE-R-101" style="edgeStyle=orthogonalEdgeStyle;rounded=0;orthogonalLoop=1;jettySize=auto;html=1;exitX=0.5;exitY=1;exitDx=0;exitDy=0;entryX=0.139;entryY=-0.06;entryDx=0;entryDy=0;entryPerimeter=0;strokeWidth=2.5;fillColor=#f8cecc;strokeColor=#b85450;" edge="1" parent="1" source="10" target="uqQuY3vlvmqI8VBcCE-R-96">
          <mxGeometry relative="1" as="geometry" />
        </mxCell>
        <mxCell id="10" value="&lt;p style=&quot;margin: 0px; margin-top: 4px; text-align: center; text-decoration: underline;&quot;&gt;&lt;strong&gt;Analysis&lt;/strong&gt;&lt;/p&gt;&lt;hr&gt;&lt;p style=&quot;margin: 0px; margin-left: 8px;&quot;&gt;Analyze&amp;nbsp;&lt;/p&gt;&lt;p style=&quot;margin: 0px; margin-left: 8px;&quot;&gt;parameters and&amp;nbsp;&lt;/p&gt;&lt;p style=&quot;margin: 0px; margin-left: 8px;&quot;&gt;possible effects&lt;br&gt;&lt;/p&gt;" style="verticalAlign=middle;align=center;overflow=fill;fontSize=12;fontFamily=Helvetica;html=1;rounded=1;fontStyle=1;strokeWidth=3;fillColor=#E6FFCC" parent="1" vertex="1">
          <mxGeometry x="188.49999999999991" y="152" width="110" height="90" as="geometry" />
        </mxCell>
        <mxCell id="uqQuY3vlvmqI8VBcCE-R-129" style="edgeStyle=orthogonalEdgeStyle;rounded=0;jumpSize=6;orthogonalLoop=1;jettySize=auto;html=1;exitX=0.5;exitY=0;exitDx=0;exitDy=0;entryX=1;entryY=0.5;entryDx=0;entryDy=0;strokeWidth=2.5;fillColor=#fff2cc;strokeColor=#d6b656;" edge="1" parent="1" source="15" target="5">
          <mxGeometry relative="1" as="geometry" />
        </mxCell>
        <mxCell id="15" value="Monitoring" style="whiteSpace=wrap;align=center;verticalAlign=middle;fontStyle=1;strokeWidth=3;fillColor=#FFFFCC" parent="1" vertex="1">
          <mxGeometry x="633" y="430" width="90" height="50" as="geometry" />
        </mxCell>
        <mxCell id="uqQuY3vlvmqI8VBcCE-R-102" style="edgeStyle=orthogonalEdgeStyle;rounded=0;orthogonalLoop=1;jettySize=auto;html=1;exitX=0.5;exitY=1;exitDx=0;exitDy=0;entryX=0.5;entryY=0;entryDx=0;entryDy=0;strokeWidth=2.5;fillColor=#f8cecc;strokeColor=#b85450;" edge="1" parent="1" source="11" target="uqQuY3vlvmqI8VBcCE-R-96">
          <mxGeometry relative="1" as="geometry" />
        </mxCell>
        <mxCell id="11" value="&lt;p style=&quot;margin: 0px; margin-top: 4px; text-align: center; text-decoration: underline;&quot;&gt;&lt;strong&gt;CICD&lt;/strong&gt;&lt;/p&gt;&lt;hr&gt;&lt;p style=&quot;margin: 0px; margin-left: 8px;&quot;&gt;Catch limit when&lt;/p&gt;&lt;p style=&quot;margin: 0px; margin-left: 8px;&quot;&gt;CICD&lt;/p&gt;" style="verticalAlign=middle;align=center;overflow=fill;fontSize=12;fontFamily=Helvetica;html=1;rounded=1;fontStyle=1;strokeWidth=3;fillColor=#E6FFCC" parent="1" vertex="1">
          <mxGeometry x="334" y="221" width="110" height="90" as="geometry" />
        </mxCell>
        <mxCell id="uqQuY3vlvmqI8VBcCE-R-124" style="edgeStyle=orthogonalEdgeStyle;rounded=0;jumpSize=6;orthogonalLoop=1;jettySize=auto;html=1;exitX=1;exitY=0.5;exitDx=0;exitDy=0;entryX=0;entryY=0.5;entryDx=0;entryDy=0;strokeWidth=2.5;" edge="1" parent="1" source="uqQuY3vlvmqI8VBcCE-R-96" target="15">
          <mxGeometry relative="1" as="geometry" />
        </mxCell>
        <mxCell id="uqQuY3vlvmqI8VBcCE-R-96" value="AWS Service Quotas with Target Value" style="shape=process;whiteSpace=wrap;align=center;verticalAlign=middle;size=0.0475;fontStyle=1;strokeWidth=3;fillColor=#97D077;" vertex="1" parent="1">
          <mxGeometry x="188.4999999999999" y="430" width="400" height="50" as="geometry" />
        </mxCell>
        <mxCell id="uqQuY3vlvmqI8VBcCE-R-120" style="edgeStyle=orthogonalEdgeStyle;rounded=0;jumpSize=6;orthogonalLoop=1;jettySize=auto;html=1;exitX=1;exitY=0.5;exitDx=0;exitDy=0;entryX=0.004;entryY=0.56;entryDx=0;entryDy=0;entryPerimeter=0;strokeWidth=2.5;" edge="1" parent="1" source="uqQuY3vlvmqI8VBcCE-R-97" target="uqQuY3vlvmqI8VBcCE-R-118">
          <mxGeometry relative="1" as="geometry" />
        </mxCell>
        <mxCell id="uqQuY3vlvmqI8VBcCE-R-97" value="AWS Service Quotas on Prod" style="shape=process;whiteSpace=wrap;align=center;verticalAlign=middle;size=0.0475;fontStyle=1;strokeWidth=3;fillColor=#97D077;" vertex="1" parent="1">
          <mxGeometry x="188.4999999999999" y="680" width="400" height="50" as="geometry" />
        </mxCell>
        <mxCell id="uqQuY3vlvmqI8VBcCE-R-114" style="edgeStyle=orthogonalEdgeStyle;rounded=0;jumpSize=6;orthogonalLoop=1;jettySize=auto;html=1;exitX=0.5;exitY=1;exitDx=0;exitDy=0;entryX=0.266;entryY=0;entryDx=0;entryDy=0;entryPerimeter=0;strokeWidth=2.5;fillColor=#f8cecc;strokeColor=#b85450;" edge="1" parent="1" source="uqQuY3vlvmqI8VBcCE-R-98" target="uqQuY3vlvmqI8VBcCE-R-97">
          <mxGeometry relative="1" as="geometry" />
        </mxCell>
        <mxCell id="uqQuY3vlvmqI8VBcCE-R-117" style="edgeStyle=orthogonalEdgeStyle;rounded=0;jumpSize=6;orthogonalLoop=1;jettySize=auto;html=1;exitX=0.266;exitY=1;exitDx=0;exitDy=0;entryX=0.5;entryY=0;entryDx=0;entryDy=0;strokeWidth=2.5;fillColor=#f8cecc;strokeColor=#b85450;exitPerimeter=0;" edge="1" parent="1" source="uqQuY3vlvmqI8VBcCE-R-96" target="uqQuY3vlvmqI8VBcCE-R-98">
          <mxGeometry relative="1" as="geometry" />
        </mxCell>
        <mxCell id="uqQuY3vlvmqI8VBcCE-R-98" value="&lt;p style=&quot;margin: 0px; margin-top: 4px; text-align: center; text-decoration: underline;&quot;&gt;Preformance&lt;/p&gt;&lt;hr&gt;&lt;p style=&quot;margin: 0px; margin-left: 8px;&quot;&gt;Preformance&amp;nbsp;&lt;/p&gt;&lt;p style=&quot;margin: 0px; margin-left: 8px;&quot;&gt;Testing&lt;/p&gt;" style="verticalAlign=middle;align=center;overflow=fill;fontSize=12;fontFamily=Helvetica;html=1;rounded=1;fontStyle=1;strokeWidth=3;fillColor=#E6FFCC" vertex="1" parent="1">
          <mxGeometry x="239.9999999999999" y="530" width="110" height="90" as="geometry" />
        </mxCell>
        <mxCell id="uqQuY3vlvmqI8VBcCE-R-106" style="edgeStyle=orthogonalEdgeStyle;rounded=0;orthogonalLoop=1;jettySize=auto;html=1;entryX=0.5;entryY=0;entryDx=0;entryDy=0;strokeWidth=2.5;fillColor=#f8cecc;strokeColor=#b85450;jumpSize=6;" edge="1" parent="1">
          <mxGeometry relative="1" as="geometry">
            <mxPoint x="243.20999999999998" y="93" as="sourcePoint" />
            <mxPoint x="243.68" y="152" as="targetPoint" />
            <Array as="points">
              <mxPoint x="244.20999999999998" y="93" />
            </Array>
          </mxGeometry>
        </mxCell>
        <mxCell id="uqQuY3vlvmqI8VBcCE-R-111" value="Analyze, evaluate and determine target value" style="rounded=0;whiteSpace=wrap;html=1;fillColor=#CCFFCC;strokeWidth=3;opacity=30;fontStyle=1" vertex="1" parent="1">
          <mxGeometry x="188.5" y="385" width="401.5" height="30" as="geometry" />
        </mxCell>
        <mxCell id="uqQuY3vlvmqI8VBcCE-R-115" style="edgeStyle=orthogonalEdgeStyle;rounded=0;jumpSize=6;orthogonalLoop=1;jettySize=auto;html=1;exitX=0.5;exitY=1;exitDx=0;exitDy=0;entryX=0.746;entryY=0;entryDx=0;entryDy=0;entryPerimeter=0;strokeWidth=2.5;fillColor=#f8cecc;strokeColor=#b85450;" edge="1" parent="1" source="uqQuY3vlvmqI8VBcCE-R-112" target="uqQuY3vlvmqI8VBcCE-R-97">
          <mxGeometry relative="1" as="geometry" />
        </mxCell>
        <mxCell id="uqQuY3vlvmqI8VBcCE-R-116" style="edgeStyle=orthogonalEdgeStyle;rounded=0;jumpSize=6;orthogonalLoop=1;jettySize=auto;html=1;exitX=0.746;exitY=1;exitDx=0;exitDy=0;entryX=0.5;entryY=0;entryDx=0;entryDy=0;strokeWidth=2.5;fillColor=#f8cecc;strokeColor=#b85450;exitPerimeter=0;" edge="1" parent="1" source="uqQuY3vlvmqI8VBcCE-R-96" target="uqQuY3vlvmqI8VBcCE-R-112">
          <mxGeometry relative="1" as="geometry" />
        </mxCell>
        <mxCell id="uqQuY3vlvmqI8VBcCE-R-112" value="&lt;p style=&quot;margin: 4px 0px 0px; text-align: center;&quot;&gt;&lt;u&gt;Endurance&lt;/u&gt;&lt;br&gt;&lt;/p&gt;&lt;hr&gt;&lt;p style=&quot;margin: 0px; margin-left: 8px;&quot;&gt;Endurance&amp;nbsp;&lt;br&gt;&lt;/p&gt;&lt;p style=&quot;margin: 0px; margin-left: 8px;&quot;&gt;Testing&lt;/p&gt;" style="verticalAlign=middle;align=center;overflow=fill;fontSize=12;fontFamily=Helvetica;html=1;rounded=1;fontStyle=1;strokeWidth=3;fillColor=#E6FFCC" vertex="1" parent="1">
          <mxGeometry x="431.9999999999999" y="530" width="110" height="90" as="geometry" />
        </mxCell>
        <mxCell id="uqQuY3vlvmqI8VBcCE-R-125" style="edgeStyle=orthogonalEdgeStyle;rounded=0;jumpSize=6;orthogonalLoop=1;jettySize=auto;html=1;exitX=1;exitY=0.5;exitDx=0;exitDy=0;entryX=1;entryY=0.5;entryDx=0;entryDy=0;strokeWidth=2.5;fillColor=#fff2cc;strokeColor=#d6b656;" edge="1" parent="1" source="uqQuY3vlvmqI8VBcCE-R-118" target="5">
          <mxGeometry relative="1" as="geometry" />
        </mxCell>
        <mxCell id="uqQuY3vlvmqI8VBcCE-R-118" value="Monitoring" style="whiteSpace=wrap;align=center;verticalAlign=middle;fontStyle=1;strokeWidth=3;fillColor=#FFFFCC" vertex="1" parent="1">
          <mxGeometry x="633" y="679" width="90" height="47" as="geometry" />
        </mxCell>
        <mxCell id="uqQuY3vlvmqI8VBcCE-R-130" value="&lt;b&gt;Sync up&lt;/b&gt;" style="rounded=1;whiteSpace=wrap;html=1;strokeWidth=3;fillColor=#fff2cc;opacity=30;strokeColor=#d6b656;" vertex="1" parent="1">
          <mxGeometry x="600" y="80" width="70" height="40" as="geometry" />
        </mxCell>
      </root>
    </mxGraphModel>
  </diagram>
</mxfile>
